<mxfile host="app.diagrams.net" modified="2021-03-21T19:53:59.584Z" agent="5.0 (Windows NT 10.0; Win64; x64) AppleWebKit/537.36 (KHTML, like Gecko) Chrome/89.0.4389.90 Safari/537.36" etag="haLn2DLbYK6HpEfJQix_" version="14.4.8" type="github">
  <diagram id="V3qSHd-S8Fk-TI2MRRrC" name="Page-1">
    <mxGraphModel dx="1022" dy="437" grid="1" gridSize="10" guides="1" tooltips="1" connect="1" arrows="1" fold="1" page="1" pageScale="1" pageWidth="827" pageHeight="1169" math="0" shadow="0">
      <root>
        <mxCell id="0" />
        <mxCell id="1" parent="0" />
        <mxCell id="86O8qyAVPP5pmmpOEpsZ-1" value="" style="whiteSpace=wrap;html=1;aspect=fixed;" vertex="1" parent="1">
          <mxGeometry x="110" y="30" width="270" height="270" as="geometry" />
        </mxCell>
        <mxCell id="86O8qyAVPP5pmmpOEpsZ-2" value="&lt;span id=&quot;docs-internal-guid-17a5525f-7fff-796a-a62c-90382e2efcbe&quot;&gt;&lt;span style=&quot;font-size: 11pt ; font-family: &amp;#34;arial&amp;#34; ; background-color: transparent ; vertical-align: baseline&quot;&gt;Use Case 3: Program Concrete User Case&lt;/span&gt;&lt;/span&gt;" style="ellipse;whiteSpace=wrap;html=1;" vertex="1" parent="1">
          <mxGeometry x="260" y="170" width="120" height="80" as="geometry" />
        </mxCell>
        <mxCell id="86O8qyAVPP5pmmpOEpsZ-3" value="&lt;span id=&quot;docs-internal-guid-13b553e7-7fff-112c-91fc-fa9577263965&quot;&gt;&lt;span style=&quot;font-size: 11pt ; font-family: &amp;#34;arial&amp;#34; ; background-color: transparent ; vertical-align: baseline&quot;&gt;Use Case 2: Frequency Concrete User Case&lt;/span&gt;&lt;/span&gt;" style="ellipse;whiteSpace=wrap;html=1;" vertex="1" parent="1">
          <mxGeometry x="120" y="170" width="120" height="80" as="geometry" />
        </mxCell>
        <mxCell id="86O8qyAVPP5pmmpOEpsZ-4" value="Actor" style="shape=umlActor;verticalLabelPosition=bottom;verticalAlign=top;html=1;outlineConnect=0;" vertex="1" parent="1">
          <mxGeometry x="20" y="110" width="30" height="60" as="geometry" />
        </mxCell>
        <mxCell id="86O8qyAVPP5pmmpOEpsZ-5" value="" style="endArrow=classic;html=1;entryX=0.002;entryY=0.375;entryDx=0;entryDy=0;entryPerimeter=0;" edge="1" parent="1" target="86O8qyAVPP5pmmpOEpsZ-1">
          <mxGeometry width="50" height="50" relative="1" as="geometry">
            <mxPoint x="60" y="130" as="sourcePoint" />
            <mxPoint x="110" y="115" as="targetPoint" />
          </mxGeometry>
        </mxCell>
        <mxCell id="86O8qyAVPP5pmmpOEpsZ-6" value="&lt;span id=&quot;docs-internal-guid-5c088867-7fff-5987-1df7-6b3fbcfb0827&quot;&gt;&lt;span style=&quot;font-size: 11pt ; font-family: &amp;#34;arial&amp;#34; ; background-color: transparent ; vertical-align: baseline&quot;&gt;Use case 1: Base Program Use case&lt;/span&gt;&lt;/span&gt;" style="ellipse;whiteSpace=wrap;html=1;" vertex="1" parent="1">
          <mxGeometry x="160" y="40" width="195" height="80" as="geometry" />
        </mxCell>
      </root>
    </mxGraphModel>
  </diagram>
</mxfile>
